<!-- icon666.com - MILLIONS OF FREE VECTOR ICONS --><svg viewBox="0 0 500 500" xmlns="http://www.w3.org/2000/svg"><g id="Layer_2" data-name="Layer 2"><g id="Layer_1-2" data-name="Layer 1"><g id="_08.Eastern_Caribbean_dollar" data-name="08.Eastern Caribbean dollar"><path d="m0 100v300a100 100 0 0 0 100 100h300a100 100 0 0 0 100-100v-300a100 100 0 0 0 -100-100h-300a100 100 0 0 0 -100 100zm347 210.37c0 39.2-28 57.61-81.14 61.7v22.5c0 3.75-1.7 5.46-5.11 5.46h-21.19c-3.41 0-5.11-1.71-5.11-5.46v-21.82c-22.84-.68-47.73-3.4-75-7.84q-6.13-1-6.14-7.16v-33.4c0-4.1 2.39-6.14 6.82-6.14h103.29c14.66 0 19.78-3.41 19.78-12.61v-3.07c0-9.55-6.14-13.3-23.87-19.78l-59-19.09c-31-9.88-44.66-28-44.66-67.84v-6.82c0-39.54 25.22-58.29 78.75-61.36v-22.16c0-3.75 1.7-5.45 5.11-5.45h21.17c3.41 0 5.11 1.7 5.11 5.45v21.52c17.39.34 38.18 3.07 62.39 7.5 4.09 1 6.13 2.73 6.13 5.79v35.8c0 3.75-2 5.8-6.47 5.8h-88.3c-15 0-20.11 3.75-20.11 14.31v2.05q0 12.27 17.38 18.41l59 19.77c18.07 6.14 31.36 14 39.2 23.18s11.97 23.49 11.97 42.92z" fill="#000000" style="fill: rgb(255, 255, 255);"></path></g></g></g></svg>